<?xml version="1.0" encoding="UTF-8" standalone="no"?>
<!-- Created with Inkscape (http://www.inkscape.org/) -->

<svg
   xmlns:dc="http://purl.org/dc/elements/1.1/"
   xmlns:cc="http://creativecommons.org/ns#"
   xmlns:rdf="http://www.w3.org/1999/02/22-rdf-syntax-ns#"
   xmlns:svg="http://www.w3.org/2000/svg"
   xmlns="http://www.w3.org/2000/svg"
   xmlns:sodipodi="http://sodipodi.sourceforge.net/DTD/sodipodi-0.dtd"
   xmlns:inkscape="http://www.inkscape.org/namespaces/inkscape"
   width="175.65182mm"
   height="38.952778mm"
   viewBox="0 0 175.65182 38.952778"
   version="1.1"
   id="svg8"
   sodipodi:docname="moliere_logo.svg"
   inkscape:export-filename="/home/jsybran/Documents/notes/research/moliere_logo.png"
   inkscape:export-xdpi="578.41699"
   inkscape:export-ydpi="578.41699"
   inkscape:version="0.92.2 (5c3e80d, 2017-08-06)">
  <defs
     id="defs2" />
  <sodipodi:namedview
     id="base"
     pagecolor="#ffffff"
     bordercolor="#666666"
     borderopacity="1.0"
     inkscape:pageopacity="0.0"
     inkscape:pageshadow="2"
     inkscape:zoom="0.98994949"
     inkscape:cx="216.4338"
     inkscape:cy="88.397385"
     inkscape:document-units="mm"
     inkscape:current-layer="layer1-3"
     showgrid="false"
     showguides="true"
     inkscape:guide-bbox="true"
     inkscape:snap-bbox="true"
     inkscape:bbox-paths="true"
     inkscape:bbox-nodes="true"
     inkscape:snap-bbox-edge-midpoints="true"
     inkscape:snap-bbox-midpoints="true"
     inkscape:window-width="1920"
     inkscape:window-height="1016"
     inkscape:window-x="0"
     inkscape:window-y="27"
     inkscape:window-maximized="1"
     fit-margin-top="0"
     fit-margin-left="0"
     fit-margin-right="0"
     fit-margin-bottom="0" />
  <metadata
     id="metadata5">
    <rdf:RDF>
      <cc:Work
         rdf:about="">
        <dc:format>image/svg+xml</dc:format>
        <dc:type
           rdf:resource="http://purl.org/dc/dcmitype/StillImage" />
        <dc:title />
      </cc:Work>
    </rdf:RDF>
  </metadata>
  <g
     inkscape:label="Layer 1"
     inkscape:groupmode="layer"
     id="layer1"
     transform="translate(-13.736617,-100.60327)">
    <g
       style="enable-background:new"
       id="g3750"
       transform="translate(-1.1461949,27.781592)">
      <g
         inkscape:label="Layer 1"
         id="layer1-3">
        <path
           style="fill:#dddddd;fill-opacity:1;stroke:none;stroke-width:2.15975261;stroke-opacity:1;enable-background:new"
           d="M 58.208984,388.55273 V 527.45508 H 175.86133 V 388.55469 l -20.69531,35.33398 -38.13086,65.10352 -38.12891,-65.10352 z"
           id="rect5481-5-2-3"
           transform="matrix(0.26458333,0,0,0.26458333,1.1461949,-27.781592)"
           inkscape:connector-curvature="0" />
        <ellipse
           style="fill:#000000;fill-opacity:0;stroke-width:0.213075"
           id="path5418"
           cx="37.187038"
           cy="93.752724"
           rx="3.847831"
           ry="1.4546442" />
        <rect
           style="fill:#3f51b5;fill-opacity:1;stroke:none;stroke-width:0.16038543;stroke-opacity:1"
           id="rect5481-5"
           width="3.3292987"
           height="28.691059"
           x="91.736732"
           y="83.083397" />
        <ellipse
           style="fill:#dddddd;fill-opacity:1;stroke:none;stroke-width:0.06201236;stroke-opacity:1"
           id="path5475-6"
           cx="93.401382"
           cy="76.556145"
           rx="3.3677151"
           ry="3.1979523" />
        <path
           style="fill:#3f51b5;fill-opacity:1;stroke:none;stroke-width:0.213075;stroke-opacity:1"
           id="path5525"
           sodipodi:type="arc"
           sodipodi:cx="112.87117"
           sodipodi:cy="97.428925"
           sodipodi:rx="14.34553"
           sodipodi:ry="14.34553"
           sodipodi:start="3.1415927"
           sodipodi:end="0"
           d="m 98.52564,97.428924 a 14.34553,14.34553 0 0 1 14.34553,-14.345529 14.34553,14.34553 0 0 1 14.34553,14.34553 h -14.34553 z" />
        <path
           style="fill:#3f51b5;fill-opacity:1;stroke:none;stroke-width:0.213075;stroke-opacity:1"
           id="path5527"
           sodipodi:type="arc"
           sodipodi:cx="67.146179"
           sodipodi:cy="97.428925"
           sodipodi:rx="14.34553"
           sodipodi:ry="14.34553"
           sodipodi:start="0"
           sodipodi:end="6.2611243"
           sodipodi:open="true"
           d="M 81.491709,97.428925 A 14.34553,14.34553 0 0 1 67.225298,111.77424 14.34553,14.34553 0 0 1 52.801522,97.58716 14.34553,14.34553 0 0 1 66.908832,83.085359 14.34553,14.34553 0 0 1 81.488218,97.112473" />
        <path
           style="fill:#3f51b5;fill-opacity:1;stroke:none;stroke-width:0.213075;stroke-opacity:1"
           id="path5525-2"
           sodipodi:type="arc"
           sodipodi:cx="112.87117"
           sodipodi:cy="97.428925"
           sodipodi:rx="14.34553"
           sodipodi:ry="14.34553"
           sodipodi:start="0.78539816"
           sodipodi:end="3.1415927"
           d="m 123.01499,107.57275 a 14.34553,14.34553 0 0 1 -15.63362,3.10972 14.34553,14.34553 0 0 1 -8.85573,-13.253546 l 14.34553,1e-6 z" />
        <rect
           style="fill:#3f51b5;fill-opacity:1;stroke:none;stroke-width:0.16038543;stroke-opacity:1"
           id="rect5481-5-9"
           width="3.3292987"
           height="28.691059"
           x="130.67632"
           y="83.083397" />
        <path
           style="fill:#3f51b5;fill-opacity:1;stroke:none;stroke-width:0.2663888;stroke-opacity:1"
           id="path5475-6-0"
           sodipodi:type="arc"
           sodipodi:cx="144.53003"
           sodipodi:cy="97.428925"
           sodipodi:rx="13.853717"
           sodipodi:ry="14.345528"
           sodipodi:start="3.1415927"
           sodipodi:end="0"
           d="m 130.67631,97.428924 a 13.853717,14.345528 0 0 1 13.85372,-14.345527 13.853717,14.345528 0 0 1 13.85372,14.345528 h -13.85372 z" />
        <path
           style="fill:#dddddd;fill-opacity:1;stroke:none;stroke-width:0.16361177;stroke-opacity:1"
           id="path5527-6"
           sodipodi:type="arc"
           sodipodi:cx="67.144432"
           sodipodi:cy="97.428925"
           sodipodi:rx="11.014482"
           sodipodi:ry="11.016234"
           sodipodi:start="0"
           sodipodi:end="6.2611243"
           sodipodi:open="true"
           d="M 78.158914,97.428925 A 11.014482,11.016234 0 0 1 67.205179,108.44499 11.014482,11.016234 0 0 1 56.130621,97.550437 11.014482,11.016234 0 0 1 66.962197,86.414198 11.014482,11.016234 0 0 1 78.156233,97.185915" />
        <path
           style="fill:#dddddd;fill-opacity:1;stroke:none;stroke-width:0.20346524;stroke-opacity:1"
           d="m 134.0056,97.428925 a 10.524423,11.016234 0 0 1 10.52442,-11.016236 10.524423,11.016234 0 0 1 10.52444,11.016236 h -10.52444 z"
           id="path5475-6-0-0"
           inkscape:connector-curvature="0" />
        <path
           style="fill:#dddddd;fill-opacity:1;stroke:none;stroke-width:0.16362476;stroke-opacity:1"
           id="path5525-7"
           sodipodi:type="arc"
           sodipodi:cx="112.87117"
           sodipodi:cy="97.428925"
           sodipodi:rx="11.016234"
           sodipodi:ry="11.016234"
           sodipodi:start="3.1415927"
           sodipodi:end="0"
           d="M 101.85494,97.428924 A 11.016234,11.016234 0 0 1 112.87117,86.41269 11.016234,11.016234 0 0 1 123.8874,97.428925 h -11.01623 z" />
        <path
           style="fill:#dddddd;fill-opacity:1;stroke:none;stroke-width:0.16362475;stroke-opacity:1"
           id="path5525-2-9"
           sodipodi:type="arc"
           sodipodi:cx="112.87117"
           sodipodi:cy="97.428925"
           sodipodi:rx="11.016232"
           sodipodi:ry="11.016232"
           sodipodi:start="0.78539816"
           sodipodi:end="3.3622027"
           d="m 120.66082,105.21858 a 11.016232,11.016232 0 0 1 -13.10013,1.86209 11.016232,11.016232 0 0 1 -5.43876,-12.062371 l 10.74924,2.410626 z" />
        <path
           style="fill:#3f51b5;fill-opacity:1;stroke:none;stroke-width:0.213075;stroke-opacity:1"
           id="path5525-20"
           sodipodi:type="arc"
           sodipodi:cx="176.18889"
           sodipodi:cy="97.428925"
           sodipodi:rx="14.34553"
           sodipodi:ry="14.34553"
           sodipodi:start="3.1415927"
           sodipodi:end="0"
           d="m 161.84336,97.428924 a 14.34553,14.34553 0 0 1 14.34553,-14.345529 14.34553,14.34553 0 0 1 14.34553,14.34553 h -14.34553 z" />
        <path
           style="fill:#3f51b5;fill-opacity:1;stroke:none;stroke-width:0.213075;stroke-opacity:1"
           id="path5525-2-2"
           sodipodi:type="arc"
           sodipodi:cx="176.18889"
           sodipodi:cy="97.428925"
           sodipodi:rx="14.34553"
           sodipodi:ry="14.34553"
           sodipodi:start="0.78539816"
           sodipodi:end="3.1415927"
           d="m 186.33271,107.57275 a 14.34553,14.34553 0 0 1 -15.63362,3.10972 14.34553,14.34553 0 0 1 -8.85573,-13.253546 l 14.34553,1e-6 z" />
        <path
           style="fill:#dddddd;fill-opacity:1;stroke:none;stroke-width:0.16362476;stroke-opacity:1"
           id="path5525-7-3"
           sodipodi:type="arc"
           sodipodi:cx="176.18889"
           sodipodi:cy="97.428925"
           sodipodi:rx="11.016234"
           sodipodi:ry="11.016234"
           sodipodi:start="3.1415927"
           sodipodi:end="0"
           d="M 165.17265,97.428924 A 11.016234,11.016234 0 0 1 176.18889,86.41269 11.016234,11.016234 0 0 1 187.20512,97.428925 H 176.18889 Z" />
        <path
           style="fill:#dddddd;fill-opacity:1;stroke:none;stroke-width:0.16362475;stroke-opacity:1"
           id="path5525-2-9-7"
           sodipodi:type="arc"
           sodipodi:cx="176.18889"
           sodipodi:cy="97.428925"
           sodipodi:rx="11.016232"
           sodipodi:ry="11.016232"
           sodipodi:start="0.78539816"
           sodipodi:end="3.3622027"
           d="m 183.97854,105.21858 a 11.016232,11.016232 0 0 1 -13.10013,1.86209 11.016232,11.016232 0 0 1 -5.43877,-12.062371 l 10.74925,2.410626 z" />
        <path
           inkscape:connector-curvature="0"
           id="path5891"
           d="M 67.53927,96.583492 C 75.975751,90.129916 84.412234,83.676339 92.848716,77.222763"
           style="fill:#cccccc;fill-opacity:1;stroke:#dddddd;stroke-width:1.73835826;stroke-linecap:butt;stroke-linejoin:miter;stroke-miterlimit:4;stroke-dasharray:none;stroke-opacity:1" />
        <path
           inkscape:connector-curvature="0"
           id="path5891-5"
           d="m 94.039864,77.103129 c 6.080986,6.574972 12.161976,13.149937 18.242956,19.724909"
           style="fill:#cccccc;fill-opacity:1;stroke:#dddddd;stroke-width:1.67652595;stroke-linecap:butt;stroke-linejoin:miter;stroke-miterlimit:4;stroke-dasharray:none;stroke-opacity:1" />
        <path
           style="fill:#3f51b5;fill-opacity:1;stroke:none;stroke-width:0.59331727;stroke-opacity:1;enable-background:new"
           d="m 611.91211,466.94531 v 12.58203 h 103.88672 v -7.35351 l -9.78321,-5.22852 z"
           id="rect5481-5-5-6"
           transform="matrix(0.26458333,0,0,0.26458333,1.1461949,-27.781592)"
           inkscape:connector-curvature="0" />
        <rect
           style="fill:#3f51b5;fill-opacity:1;stroke:none;stroke-width:0.18687914;stroke-opacity:1;enable-background:new"
           id="rect5481-5-2"
           width="3.3292987"
           height="38.952778"
           x="14.882812"
           y="72.821678" />
        <rect
           style="fill:#3f51b5;fill-opacity:1;stroke:none;stroke-width:0.18687914;stroke-opacity:1;enable-background:new"
           id="rect5481-5-2-9"
           width="3.3292987"
           height="38.952778"
           x="46.011738"
           y="72.821678" />
        <path
           inkscape:connector-curvature="0"
           style="fill:#3f51b5;fill-opacity:1;stroke-width:0.11940682;enable-background:new"
           d="M 14.882824,72.821678 32.111747,101.59759 49.341186,72.821678 H 46.011672 L 32.111747,96.036745 18.212336,72.821678 Z"
           id="path4501-5-6" />
        <path
           inkscape:connector-curvature="0"
           style="fill:#3f51b5;fill-opacity:1;stroke:none;stroke-width:0.15698186;stroke-opacity:1;enable-background:new"
           d="m 99.730006,95.764427 v 3.328995 H 127.2167 v -1.945616 l -2.58848,-1.383379 z"
           id="rect5481-5-5-6-6" />
        <rect
           style="fill:#3f51b5;fill-opacity:1;stroke:none;stroke-width:0.18687914;stroke-opacity:1"
           id="rect5481"
           width="3.3292987"
           height="38.952774"
           x="84.94783"
           y="72.821678" />
      </g>
    </g>
  </g>
</svg>

